<mxfile host="app.diagrams.net" modified="2024-06-03T14:42:56.245Z" agent="Mozilla/5.0 (Windows NT 10.0; Win64; x64) AppleWebKit/537.36 (KHTML, like Gecko) Chrome/121.0.0.0 Safari/537.36" etag="2VcseOk_OG4D2JbmmJmT" version="24.4.13" type="device" pages="4">
  <diagram id="MPCjucIjYPjaMe1rTaf6" name="Página-1">
    <mxGraphModel dx="2739" dy="1043" grid="1" gridSize="10" guides="1" tooltips="1" connect="1" arrows="1" fold="1" page="1" pageScale="1" pageWidth="827" pageHeight="1169" math="0" shadow="0">
      <root>
        <mxCell id="0" />
        <mxCell id="1" parent="0" />
        <mxCell id="rPMoqe0fDh5TPPvU1n7Q-1" value="" style="shape=ext;double=1;rounded=1;whiteSpace=wrap;html=1;rotation=90;" parent="1" vertex="1">
          <mxGeometry x="-70" y="240" width="630" height="305" as="geometry" />
        </mxCell>
        <mxCell id="rPMoqe0fDh5TPPvU1n7Q-2" value="" style="rounded=1;whiteSpace=wrap;html=1;" parent="1" vertex="1">
          <mxGeometry x="113" y="230" width="260" height="30" as="geometry" />
        </mxCell>
        <mxCell id="rPMoqe0fDh5TPPvU1n7Q-3" value="NOME:" style="text;html=1;align=center;verticalAlign=middle;whiteSpace=wrap;rounded=0;" parent="1" vertex="1">
          <mxGeometry x="113" y="200" width="40" height="30" as="geometry" />
        </mxCell>
        <mxCell id="rPMoqe0fDh5TPPvU1n7Q-4" value="&amp;nbsp;Atualizar Cadastro" style="text;strokeColor=none;fillColor=none;html=1;fontSize=24;fontStyle=1;verticalAlign=middle;align=center;" parent="1" vertex="1">
          <mxGeometry x="195" y="120" width="100" height="40" as="geometry" />
        </mxCell>
        <mxCell id="rPMoqe0fDh5TPPvU1n7Q-5" value="" style="rounded=1;whiteSpace=wrap;html=1;" parent="1" vertex="1">
          <mxGeometry x="113" y="330" width="258" height="30" as="geometry" />
        </mxCell>
        <mxCell id="rPMoqe0fDh5TPPvU1n7Q-6" value="TELEFONE:" style="text;html=1;align=center;verticalAlign=middle;whiteSpace=wrap;rounded=0;" parent="1" vertex="1">
          <mxGeometry x="116.5" y="300" width="60" height="30" as="geometry" />
        </mxCell>
        <mxCell id="rPMoqe0fDh5TPPvU1n7Q-7" value="" style="rounded=1;whiteSpace=wrap;html=1;" parent="1" vertex="1">
          <mxGeometry x="113" y="430" width="258" height="30" as="geometry" />
        </mxCell>
        <mxCell id="rPMoqe0fDh5TPPvU1n7Q-8" value="ENDEREÇO:" style="text;html=1;align=center;verticalAlign=middle;whiteSpace=wrap;rounded=0;" parent="1" vertex="1">
          <mxGeometry x="113" y="400" width="70" height="30" as="geometry" />
        </mxCell>
        <mxCell id="rPMoqe0fDh5TPPvU1n7Q-11" value="ATUALIZAR" style="rounded=1;whiteSpace=wrap;html=1;fillColor=#dae8fc;strokeColor=#6c8ebf;" parent="1" vertex="1">
          <mxGeometry x="152.5" y="520" width="181" height="30" as="geometry" />
        </mxCell>
        <mxCell id="0v39kfsX4FrXRP3GG5Wf-1" value="EXCLUIR CLIENTE?&lt;div&gt;&lt;br&gt;&lt;/div&gt;&lt;div&gt;&lt;br&gt;&lt;/div&gt;&lt;div&gt;&lt;br&gt;&lt;/div&gt;&lt;div&gt;&lt;br&gt;&lt;/div&gt;&lt;div&gt;&lt;br&gt;&lt;/div&gt;" style="rounded=1;whiteSpace=wrap;html=1;" parent="1" vertex="1">
          <mxGeometry x="460" y="140" width="220" height="120" as="geometry" />
        </mxCell>
        <mxCell id="0v39kfsX4FrXRP3GG5Wf-2" value="SIM" style="rounded=1;whiteSpace=wrap;html=1;" parent="1" vertex="1">
          <mxGeometry x="480" y="210" width="80" height="30" as="geometry" />
        </mxCell>
        <mxCell id="0v39kfsX4FrXRP3GG5Wf-3" value="NÃO" style="rounded=1;whiteSpace=wrap;html=1;" parent="1" vertex="1">
          <mxGeometry x="580" y="210" width="80" height="30" as="geometry" />
        </mxCell>
        <mxCell id="Y8Gp_SCt69GLDGfQdgN2-1" value="" style="shape=ext;double=1;rounded=1;whiteSpace=wrap;html=1;rotation=90;" parent="1" vertex="1">
          <mxGeometry x="-420" y="240" width="630" height="305" as="geometry" />
        </mxCell>
        <mxCell id="Y8Gp_SCt69GLDGfQdgN2-2" value="" style="rounded=1;whiteSpace=wrap;html=1;" parent="1" vertex="1">
          <mxGeometry x="-237" y="230" width="260" height="30" as="geometry" />
        </mxCell>
        <mxCell id="Y8Gp_SCt69GLDGfQdgN2-3" value="NOME:" style="text;html=1;align=center;verticalAlign=middle;whiteSpace=wrap;rounded=0;" parent="1" vertex="1">
          <mxGeometry x="-237" y="200" width="40" height="30" as="geometry" />
        </mxCell>
        <mxCell id="Y8Gp_SCt69GLDGfQdgN2-4" value="Cadastro Cliente" style="text;strokeColor=none;fillColor=none;html=1;fontSize=24;fontStyle=1;verticalAlign=middle;align=center;" parent="1" vertex="1">
          <mxGeometry x="-155" y="120" width="100" height="40" as="geometry" />
        </mxCell>
        <mxCell id="Y8Gp_SCt69GLDGfQdgN2-5" value="" style="rounded=1;whiteSpace=wrap;html=1;" parent="1" vertex="1">
          <mxGeometry x="-237" y="330" width="258" height="30" as="geometry" />
        </mxCell>
        <mxCell id="Y8Gp_SCt69GLDGfQdgN2-6" value="TELEFONE:" style="text;html=1;align=center;verticalAlign=middle;whiteSpace=wrap;rounded=0;" parent="1" vertex="1">
          <mxGeometry x="-233.5" y="300" width="60" height="30" as="geometry" />
        </mxCell>
        <mxCell id="Y8Gp_SCt69GLDGfQdgN2-7" value="" style="rounded=1;whiteSpace=wrap;html=1;" parent="1" vertex="1">
          <mxGeometry x="-237" y="430" width="258" height="30" as="geometry" />
        </mxCell>
        <mxCell id="Y8Gp_SCt69GLDGfQdgN2-8" value="ENDEREÇO:" style="text;html=1;align=center;verticalAlign=middle;whiteSpace=wrap;rounded=0;" parent="1" vertex="1">
          <mxGeometry x="-237" y="400" width="70" height="30" as="geometry" />
        </mxCell>
        <mxCell id="Y8Gp_SCt69GLDGfQdgN2-9" value="" style="image;html=1;image=img/lib/atlassian/Bitbucket_Logo.svg;" parent="1" vertex="1">
          <mxGeometry x="-55" y="620" width="30" height="30" as="geometry" />
        </mxCell>
        <mxCell id="Y8Gp_SCt69GLDGfQdgN2-10" value="" style="image;html=1;image=img/lib/atlassian/Bamboo_Logo.svg;" parent="1" vertex="1">
          <mxGeometry x="-16" y="620" width="30" height="30" as="geometry" />
        </mxCell>
        <mxCell id="Y8Gp_SCt69GLDGfQdgN2-11" value="CADASTRAR" style="rounded=1;whiteSpace=wrap;html=1;fillColor=#dae8fc;strokeColor=#6c8ebf;" parent="1" vertex="1">
          <mxGeometry x="-197.5" y="520" width="181" height="30" as="geometry" />
        </mxCell>
        <mxCell id="9HxwdpnLNPzM95kvkKmC-1" value="" style="shape=ext;double=1;rounded=1;whiteSpace=wrap;html=1;rotation=90;" parent="1" vertex="1">
          <mxGeometry x="-785" y="240" width="630" height="305" as="geometry" />
        </mxCell>
        <mxCell id="9HxwdpnLNPzM95kvkKmC-2" value="" style="rounded=1;whiteSpace=wrap;html=1;" parent="1" vertex="1">
          <mxGeometry x="-597" y="190" width="260" height="30" as="geometry" />
        </mxCell>
        <mxCell id="9HxwdpnLNPzM95kvkKmC-3" value="BUSCAR:" style="text;html=1;align=center;verticalAlign=middle;whiteSpace=wrap;rounded=0;" parent="1" vertex="1">
          <mxGeometry x="-593.5" y="160" width="46.5" height="30" as="geometry" />
        </mxCell>
        <mxCell id="9HxwdpnLNPzM95kvkKmC-13" value="Busca de Cliente" style="text;strokeColor=none;fillColor=none;html=1;fontSize=24;fontStyle=1;verticalAlign=middle;align=center;" parent="1" vertex="1">
          <mxGeometry x="-520" y="100" width="100" height="40" as="geometry" />
        </mxCell>
        <mxCell id="PhrVsi8nFc-91EdD78nV-1" value="" style="rounded=1;whiteSpace=wrap;html=1;" vertex="1" parent="1">
          <mxGeometry x="460" y="310" width="220" height="112.5" as="geometry" />
        </mxCell>
        <mxCell id="PhrVsi8nFc-91EdD78nV-2" value="CADASTRO ATUALIZADO." style="text;html=1;align=center;verticalAlign=middle;whiteSpace=wrap;rounded=0;" vertex="1" parent="1">
          <mxGeometry x="485" y="351.25" width="170" height="30" as="geometry" />
        </mxCell>
        <mxCell id="PhrVsi8nFc-91EdD78nV-3" value="BUSCA NÃO ENCONTRADA." style="rounded=1;whiteSpace=wrap;html=1;" vertex="1" parent="1">
          <mxGeometry x="-810" y="240" width="180" height="100" as="geometry" />
        </mxCell>
        <mxCell id="PhrVsi8nFc-91EdD78nV-4" value="" style="rounded=1;whiteSpace=wrap;html=1;" vertex="1" parent="1">
          <mxGeometry x="460" y="460" width="220" height="120" as="geometry" />
        </mxCell>
        <mxCell id="PhrVsi8nFc-91EdD78nV-5" value="CADASTRO REALIZADO COM SUCESSO." style="text;html=1;align=center;verticalAlign=middle;whiteSpace=wrap;rounded=0;" vertex="1" parent="1">
          <mxGeometry x="495" y="500" width="155" height="40" as="geometry" />
        </mxCell>
        <mxCell id="j4g2MIqA9vjG7umstPgw-1" value="CANCELAR" style="text;html=1;align=center;verticalAlign=middle;whiteSpace=wrap;rounded=0;" vertex="1" parent="1">
          <mxGeometry x="-227" y="620" width="60" height="30" as="geometry" />
        </mxCell>
        <mxCell id="OJ0Ye9gWBK-vCZosdEpk-1" value="DESEJA ATUALIZAR?" style="rounded=1;whiteSpace=wrap;html=1;" vertex="1" parent="1">
          <mxGeometry x="462.5" y="620" width="220" height="130" as="geometry" />
        </mxCell>
        <mxCell id="JR8zXEGs36O_ESI3EkDn-2" value="" style="rounded=1;whiteSpace=wrap;html=1;" vertex="1" parent="1">
          <mxGeometry x="-597" y="240" width="260" height="30" as="geometry" />
        </mxCell>
        <mxCell id="JR8zXEGs36O_ESI3EkDn-3" value="" style="rounded=1;whiteSpace=wrap;html=1;" vertex="1" parent="1">
          <mxGeometry x="-597" y="290" width="260" height="30" as="geometry" />
        </mxCell>
        <mxCell id="JR8zXEGs36O_ESI3EkDn-4" value="" style="rounded=1;whiteSpace=wrap;html=1;" vertex="1" parent="1">
          <mxGeometry x="-597" y="340" width="260" height="30" as="geometry" />
        </mxCell>
        <mxCell id="JR8zXEGs36O_ESI3EkDn-5" value="" style="rounded=1;whiteSpace=wrap;html=1;" vertex="1" parent="1">
          <mxGeometry x="-600" y="392.5" width="260" height="30" as="geometry" />
        </mxCell>
        <mxCell id="JR8zXEGs36O_ESI3EkDn-6" value="" style="rounded=1;whiteSpace=wrap;html=1;" vertex="1" parent="1">
          <mxGeometry x="-597" y="440" width="260" height="30" as="geometry" />
        </mxCell>
        <mxCell id="JR8zXEGs36O_ESI3EkDn-7" value="" style="rounded=1;whiteSpace=wrap;html=1;" vertex="1" parent="1">
          <mxGeometry x="-600" y="490" width="260" height="30" as="geometry" />
        </mxCell>
        <mxCell id="JR8zXEGs36O_ESI3EkDn-8" value="" style="rounded=1;whiteSpace=wrap;html=1;" vertex="1" parent="1">
          <mxGeometry x="-600" y="540" width="260" height="30" as="geometry" />
        </mxCell>
        <mxCell id="JR8zXEGs36O_ESI3EkDn-9" value="" style="rounded=1;whiteSpace=wrap;html=1;" vertex="1" parent="1">
          <mxGeometry x="-600" y="590" width="260" height="30" as="geometry" />
        </mxCell>
        <mxCell id="JR8zXEGs36O_ESI3EkDn-16" value="" style="image;html=1;image=img/lib/atlassian/Bitbucket_Logo.svg;" vertex="1" parent="1">
          <mxGeometry x="-397.5" y="195" width="27.5" height="25" as="geometry" />
        </mxCell>
        <mxCell id="JR8zXEGs36O_ESI3EkDn-17" value="" style="image;html=1;image=img/lib/atlassian/Bamboo_Logo.svg;" vertex="1" parent="1">
          <mxGeometry x="-370" y="190" width="26.5" height="30" as="geometry" />
        </mxCell>
        <mxCell id="JR8zXEGs36O_ESI3EkDn-20" value="" style="rounded=1;whiteSpace=wrap;html=1;" vertex="1" parent="1">
          <mxGeometry x="-390" y="640" width="40" height="40" as="geometry" />
        </mxCell>
        <mxCell id="JR8zXEGs36O_ESI3EkDn-22" value="+" style="text;strokeColor=none;fillColor=none;html=1;fontSize=24;fontStyle=1;verticalAlign=middle;align=center;" vertex="1" parent="1">
          <mxGeometry x="-420" y="640" width="100" height="40" as="geometry" />
        </mxCell>
        <mxCell id="t5zf2m1HPol5iy9qWCx0-1" value="SIM" style="rounded=1;whiteSpace=wrap;html=1;" vertex="1" parent="1">
          <mxGeometry x="480" y="700" width="90" height="40" as="geometry" />
        </mxCell>
        <mxCell id="t5zf2m1HPol5iy9qWCx0-2" value="NÃO" style="rounded=1;whiteSpace=wrap;html=1;" vertex="1" parent="1">
          <mxGeometry x="580" y="700" width="90" height="40" as="geometry" />
        </mxCell>
      </root>
    </mxGraphModel>
  </diagram>
  <diagram id="b51eEwwXShiufHlauztZ" name="Página-2">
    <mxGraphModel dx="2739" dy="1043" grid="1" gridSize="10" guides="1" tooltips="1" connect="1" arrows="1" fold="1" page="1" pageScale="1" pageWidth="827" pageHeight="1169" math="0" shadow="0">
      <root>
        <mxCell id="0" />
        <mxCell id="1" parent="0" />
        <mxCell id="qthaCIu6Rd1F-Nfpj4W0-1" value="&lt;span style=&quot;color: rgba(0, 0, 0, 0); font-family: monospace; font-size: 0px; text-align: start; text-wrap: nowrap;&quot;&gt;%3CmxGraphModel%3E%3Croot%3E%3CmxCell%20id%3D%220%22%2F%3E%3CmxCell%20id%3D%221%22%20parent%3D%220%22%2F%3E%3CmxCell%20id%3D%222%22%20value%3D%22%22%20style%3D%22rounded%3D1%3BwhiteSpace%3Dwrap%3Bhtml%3D1%3B%22%20vertex%3D%221%22%20parent%3D%221%22%3E%3CmxGeometry%20x%3D%22278%22%20y%3D%22230%22%20width%3D%22260%22%20height%3D%2230%22%20as%3D%22geometry%22%2F%3E%3C%2FmxCell%3E%3C%2Froot%3E%3C%2FmxGraphModel%3E&lt;/span&gt;&lt;span style=&quot;color: rgba(0, 0, 0, 0); font-family: monospace; font-size: 0px; text-align: start; text-wrap: nowrap;&quot;&gt;%3CmxGraphModel%3E%3Croot%3E%3CmxCell%20id%3D%220%22%2F%3E%3CmxCell%20id%3D%221%22%20parent%3D%220%22%2F%3E%3CmxCell%20id%3D%222%22%20value%3D%22%22%20style%3D%22rounded%3D1%3BwhiteSpace%3Dwrap%3Bhtml%3D1%3B%22%20vertex%3D%221%22%20parent%3D%221%22%3E%3CmxGeometry%20x%3D%22278%22%20y%3D%22230%22%20width%3D%22260%22%20height%3D%2230%22%20as%3D%22geometry%22%2F%3E%3C%2FmxCell%3E%3C%2Froot%3E%3C%2FmxGraphModel%3E&lt;/span&gt;" style="shape=ext;double=1;rounded=1;whiteSpace=wrap;html=1;rotation=90;" parent="1" vertex="1">
          <mxGeometry x="-63" y="290" width="630" height="305" as="geometry" />
        </mxCell>
        <mxCell id="qthaCIu6Rd1F-Nfpj4W0-2" value="" style="rounded=1;whiteSpace=wrap;html=1;" parent="1" vertex="1">
          <mxGeometry x="122" y="240" width="260" height="30" as="geometry" />
        </mxCell>
        <mxCell id="qthaCIu6Rd1F-Nfpj4W0-3" value="NOME CLIENTE:" style="text;html=1;align=center;verticalAlign=middle;whiteSpace=wrap;rounded=0;" parent="1" vertex="1">
          <mxGeometry x="119" y="220" width="100" height="20" as="geometry" />
        </mxCell>
        <mxCell id="qthaCIu6Rd1F-Nfpj4W0-4" value="Atualizar Pedido" style="text;strokeColor=none;fillColor=none;html=1;fontSize=24;fontStyle=1;verticalAlign=middle;align=center;" parent="1" vertex="1">
          <mxGeometry x="202" y="140" width="100" height="40" as="geometry" />
        </mxCell>
        <mxCell id="qthaCIu6Rd1F-Nfpj4W0-6" value="QUANTIDADE:" style="text;html=1;align=center;verticalAlign=middle;whiteSpace=wrap;rounded=0;" parent="1" vertex="1">
          <mxGeometry x="141" y="290" width="44" height="20" as="geometry" />
        </mxCell>
        <mxCell id="qthaCIu6Rd1F-Nfpj4W0-7" value="" style="rounded=1;whiteSpace=wrap;html=1;" parent="1" vertex="1">
          <mxGeometry x="121" y="380" width="261" height="30" as="geometry" />
        </mxCell>
        <mxCell id="qthaCIu6Rd1F-Nfpj4W0-8" value="VALOR:" style="text;html=1;align=center;verticalAlign=middle;whiteSpace=wrap;rounded=0;" parent="1" vertex="1">
          <mxGeometry x="111" y="350" width="70" height="30" as="geometry" />
        </mxCell>
        <mxCell id="qthaCIu6Rd1F-Nfpj4W0-11" value="ATUALIZAR" style="rounded=1;whiteSpace=wrap;html=1;fillColor=#dae8fc;strokeColor=#6c8ebf;" parent="1" vertex="1">
          <mxGeometry x="161.5" y="690" width="181" height="30" as="geometry" />
        </mxCell>
        <mxCell id="qthaCIu6Rd1F-Nfpj4W0-24" value="" style="rounded=1;whiteSpace=wrap;html=1;" parent="1" vertex="1">
          <mxGeometry x="122" y="310" width="260" height="30" as="geometry" />
        </mxCell>
        <mxCell id="qthaCIu6Rd1F-Nfpj4W0-27" value="" style="rounded=1;whiteSpace=wrap;html=1;" parent="1" vertex="1">
          <mxGeometry x="122" y="450" width="260" height="30" as="geometry" />
        </mxCell>
        <mxCell id="qthaCIu6Rd1F-Nfpj4W0-28" value="DESCONTO:" style="text;html=1;align=center;verticalAlign=middle;whiteSpace=wrap;rounded=0;" parent="1" vertex="1">
          <mxGeometry x="111" y="420" width="100" height="30" as="geometry" />
        </mxCell>
        <mxCell id="qthaCIu6Rd1F-Nfpj4W0-29" value="" style="rounded=1;whiteSpace=wrap;html=1;" parent="1" vertex="1">
          <mxGeometry x="122" y="520" width="260" height="30" as="geometry" />
        </mxCell>
        <mxCell id="qthaCIu6Rd1F-Nfpj4W0-30" value="PRAZO:" style="text;html=1;align=center;verticalAlign=middle;whiteSpace=wrap;rounded=0;" parent="1" vertex="1">
          <mxGeometry x="119" y="500" width="60" height="20" as="geometry" />
        </mxCell>
        <mxCell id="qthaCIu6Rd1F-Nfpj4W0-34" value="" style="rounded=1;whiteSpace=wrap;html=1;" parent="1" vertex="1">
          <mxGeometry x="270" y="630" width="120" height="30" as="geometry" />
        </mxCell>
        <mxCell id="qthaCIu6Rd1F-Nfpj4W0-35" value="TOTAL:" style="text;html=1;align=center;verticalAlign=middle;whiteSpace=wrap;rounded=0;" parent="1" vertex="1">
          <mxGeometry x="210" y="630" width="60" height="30" as="geometry" />
        </mxCell>
        <mxCell id="skCOWzj_9UNvrqgEBTrp-1" value="EXCLUIR PEDIDO?&lt;div&gt;&lt;br&gt;&lt;/div&gt;&lt;div&gt;&lt;br&gt;&lt;/div&gt;&lt;div&gt;&lt;br&gt;&lt;/div&gt;&lt;div&gt;&lt;br&gt;&lt;/div&gt;&lt;div&gt;&lt;br&gt;&lt;/div&gt;" style="rounded=1;whiteSpace=wrap;html=1;" parent="1" vertex="1">
          <mxGeometry x="432.5" y="140" width="220" height="120" as="geometry" />
        </mxCell>
        <mxCell id="skCOWzj_9UNvrqgEBTrp-2" value="SIM" style="rounded=1;whiteSpace=wrap;html=1;" parent="1" vertex="1">
          <mxGeometry x="450" y="200" width="80" height="30" as="geometry" />
        </mxCell>
        <mxCell id="skCOWzj_9UNvrqgEBTrp-4" value="NÃO" style="rounded=1;whiteSpace=wrap;html=1;" parent="1" vertex="1">
          <mxGeometry x="550" y="200" width="80" height="30" as="geometry" />
        </mxCell>
        <mxCell id="7hrHsCO3Fn9igm-hcmO6-1" value="&lt;span style=&quot;color: rgba(0, 0, 0, 0); font-family: monospace; font-size: 0px; text-align: start; text-wrap: nowrap;&quot;&gt;%3CmxGraphModel%3E%3Croot%3E%3CmxCell%20id%3D%220%22%2F%3E%3CmxCell%20id%3D%221%22%20parent%3D%220%22%2F%3E%3CmxCell%20id%3D%222%22%20value%3D%22%22%20style%3D%22rounded%3D1%3BwhiteSpace%3Dwrap%3Bhtml%3D1%3B%22%20vertex%3D%221%22%20parent%3D%221%22%3E%3CmxGeometry%20x%3D%22278%22%20y%3D%22230%22%20width%3D%22260%22%20height%3D%2230%22%20as%3D%22geometry%22%2F%3E%3C%2FmxCell%3E%3C%2Froot%3E%3C%2FmxGraphModel%3E&lt;/span&gt;&lt;span style=&quot;color: rgba(0, 0, 0, 0); font-family: monospace; font-size: 0px; text-align: start; text-wrap: nowrap;&quot;&gt;%3CmxGraphModel%3E%3Croot%3E%3CmxCell%20id%3D%220%22%2F%3E%3CmxCell%20id%3D%221%22%20parent%3D%220%22%2F%3E%3CmxCell%20id%3D%222%22%20value%3D%22%22%20style%3D%22rounded%3D1%3BwhiteSpace%3Dwrap%3Bhtml%3D1%3B%22%20vertex%3D%221%22%20parent%3D%221%22%3E%3CmxGeometry%20x%3D%22278%22%20y%3D%22230%22%20width%3D%22260%22%20height%3D%2230%22%20as%3D%22geometry%22%2F%3E%3C%2FmxCell%3E%3C%2Froot%3E%3C%2FmxGraphModel%3E&lt;/span&gt;" style="shape=ext;double=1;rounded=1;whiteSpace=wrap;html=1;rotation=90;" parent="1" vertex="1">
          <mxGeometry x="-414" y="287.5" width="630" height="305" as="geometry" />
        </mxCell>
        <mxCell id="7hrHsCO3Fn9igm-hcmO6-2" value="" style="rounded=1;whiteSpace=wrap;html=1;" parent="1" vertex="1">
          <mxGeometry x="-230.5" y="220" width="260" height="30" as="geometry" />
        </mxCell>
        <mxCell id="7hrHsCO3Fn9igm-hcmO6-3" value="NOME CLIENTE:" style="text;html=1;align=center;verticalAlign=middle;whiteSpace=wrap;rounded=0;" parent="1" vertex="1">
          <mxGeometry x="-229" y="200" width="100" height="20" as="geometry" />
        </mxCell>
        <mxCell id="7hrHsCO3Fn9igm-hcmO6-4" value="Cadastro Pedido" style="text;strokeColor=none;fillColor=none;html=1;fontSize=24;fontStyle=1;verticalAlign=middle;align=center;" parent="1" vertex="1">
          <mxGeometry x="-149" y="145" width="100" height="40" as="geometry" />
        </mxCell>
        <mxCell id="7hrHsCO3Fn9igm-hcmO6-5" value="QUANTIDADE:" style="text;html=1;align=center;verticalAlign=middle;whiteSpace=wrap;rounded=0;" parent="1" vertex="1">
          <mxGeometry x="-210" y="340" width="44" height="20" as="geometry" />
        </mxCell>
        <mxCell id="7hrHsCO3Fn9igm-hcmO6-6" value="" style="rounded=1;whiteSpace=wrap;html=1;" parent="1" vertex="1">
          <mxGeometry x="-230" y="427.5" width="261" height="30" as="geometry" />
        </mxCell>
        <mxCell id="7hrHsCO3Fn9igm-hcmO6-7" value="VALOR:" style="text;html=1;align=center;verticalAlign=middle;whiteSpace=wrap;rounded=0;" parent="1" vertex="1">
          <mxGeometry x="-238" y="397.5" width="70" height="30" as="geometry" />
        </mxCell>
        <mxCell id="7hrHsCO3Fn9igm-hcmO6-8" value="" style="image;html=1;image=img/lib/atlassian/Bamboo_Logo.svg;" parent="1" vertex="1">
          <mxGeometry x="-10" y="720" width="30" height="30" as="geometry" />
        </mxCell>
        <mxCell id="7hrHsCO3Fn9igm-hcmO6-9" value="CADASTRAR" style="rounded=1;whiteSpace=wrap;html=1;fillColor=#dae8fc;strokeColor=#6c8ebf;" parent="1" vertex="1">
          <mxGeometry x="-191" y="680" width="181" height="30" as="geometry" />
        </mxCell>
        <mxCell id="7hrHsCO3Fn9igm-hcmO6-10" value="" style="rounded=1;whiteSpace=wrap;html=1;" parent="1" vertex="1">
          <mxGeometry x="-229" y="360" width="260" height="30" as="geometry" />
        </mxCell>
        <mxCell id="7hrHsCO3Fn9igm-hcmO6-11" value="" style="rounded=1;whiteSpace=wrap;html=1;" parent="1" vertex="1">
          <mxGeometry x="-229" y="500" width="260" height="30" as="geometry" />
        </mxCell>
        <mxCell id="7hrHsCO3Fn9igm-hcmO6-12" value="DESCONTO:" style="text;html=1;align=center;verticalAlign=middle;whiteSpace=wrap;rounded=0;" parent="1" vertex="1">
          <mxGeometry x="-240" y="475" width="100" height="30" as="geometry" />
        </mxCell>
        <mxCell id="7hrHsCO3Fn9igm-hcmO6-13" value="" style="rounded=1;whiteSpace=wrap;html=1;" parent="1" vertex="1">
          <mxGeometry x="-229" y="565" width="260" height="30" as="geometry" />
        </mxCell>
        <mxCell id="7hrHsCO3Fn9igm-hcmO6-14" value="PRAZO:" style="text;html=1;align=center;verticalAlign=middle;whiteSpace=wrap;rounded=0;" parent="1" vertex="1">
          <mxGeometry x="-230" y="542.5" width="60" height="20" as="geometry" />
        </mxCell>
        <mxCell id="7hrHsCO3Fn9igm-hcmO6-15" value="" style="image;html=1;image=img/lib/atlassian/Bitbucket_Logo.svg;" parent="1" vertex="1">
          <mxGeometry x="-50" y="720" width="31" height="30" as="geometry" />
        </mxCell>
        <mxCell id="7hrHsCO3Fn9igm-hcmO6-16" value="" style="rounded=1;whiteSpace=wrap;html=1;" parent="1" vertex="1">
          <mxGeometry x="-79.5" y="610" width="120" height="30" as="geometry" />
        </mxCell>
        <mxCell id="7hrHsCO3Fn9igm-hcmO6-17" value="TOTAL:" style="text;html=1;align=center;verticalAlign=middle;whiteSpace=wrap;rounded=0;" parent="1" vertex="1">
          <mxGeometry x="-139.5" y="610" width="60" height="30" as="geometry" />
        </mxCell>
        <mxCell id="5fIgG-eNXw3wHDYJX3oT-1" value="" style="shape=ext;double=1;rounded=1;whiteSpace=wrap;html=1;rotation=90;" parent="1" vertex="1">
          <mxGeometry x="-770" y="290" width="630" height="305" as="geometry" />
        </mxCell>
        <mxCell id="5fIgG-eNXw3wHDYJX3oT-2" value="" style="rounded=1;whiteSpace=wrap;html=1;" parent="1" vertex="1">
          <mxGeometry x="-582" y="240" width="260" height="30" as="geometry" />
        </mxCell>
        <mxCell id="5fIgG-eNXw3wHDYJX3oT-3" value="BUSCAR:" style="text;html=1;align=center;verticalAlign=middle;whiteSpace=wrap;rounded=0;" parent="1" vertex="1">
          <mxGeometry x="-578.5" y="210" width="46.5" height="30" as="geometry" />
        </mxCell>
        <mxCell id="5fIgG-eNXw3wHDYJX3oT-4" value="Busca de Pedido" style="text;strokeColor=none;fillColor=none;html=1;fontSize=24;fontStyle=1;verticalAlign=middle;align=center;" parent="1" vertex="1">
          <mxGeometry x="-505" y="150" width="100" height="40" as="geometry" />
        </mxCell>
        <mxCell id="VG360DKVsklPtF-1lQfE-3" value="MODELO/MARCA:" style="text;html=1;align=center;verticalAlign=middle;whiteSpace=wrap;rounded=0;" parent="1" vertex="1">
          <mxGeometry x="151" y="562.5" width="60" height="30" as="geometry" />
        </mxCell>
        <mxCell id="VG360DKVsklPtF-1lQfE-4" value="" style="rounded=1;whiteSpace=wrap;html=1;" parent="1" vertex="1">
          <mxGeometry x="122" y="587.5" width="260" height="30" as="geometry" />
        </mxCell>
        <mxCell id="0nvnot6GaPvWNSFrF9XZ-1" value="" style="image;html=1;image=img/lib/atlassian/Bitbucket_Logo.svg;" parent="1" vertex="1">
          <mxGeometry x="-386" y="240" width="32" height="30" as="geometry" />
        </mxCell>
        <mxCell id="0nvnot6GaPvWNSFrF9XZ-2" value="" style="image;html=1;image=img/lib/atlassian/Bamboo_Logo.svg;" parent="1" vertex="1">
          <mxGeometry x="-354" y="240" width="30" height="30" as="geometry" />
        </mxCell>
        <mxCell id="s_zZctf44ApTEgr3rxLr-1" value="" style="rounded=1;whiteSpace=wrap;html=1;" vertex="1" parent="1">
          <mxGeometry x="432.5" y="310" width="220" height="112.5" as="geometry" />
        </mxCell>
        <mxCell id="s_zZctf44ApTEgr3rxLr-2" value="PEDIDO ATUALIZADO." style="text;html=1;align=center;verticalAlign=middle;whiteSpace=wrap;rounded=0;" vertex="1" parent="1">
          <mxGeometry x="455" y="351.25" width="170" height="30" as="geometry" />
        </mxCell>
        <mxCell id="P8DhjZnSs3bwvQia5A7m-1" value="" style="rounded=1;whiteSpace=wrap;html=1;" vertex="1" parent="1">
          <mxGeometry x="430" y="465" width="220" height="120" as="geometry" />
        </mxCell>
        <mxCell id="P8DhjZnSs3bwvQia5A7m-2" value="CADASTRO REALIZADO COM SUCESSO." style="text;html=1;align=center;verticalAlign=middle;whiteSpace=wrap;rounded=0;" vertex="1" parent="1">
          <mxGeometry x="465" y="505" width="155" height="40" as="geometry" />
        </mxCell>
        <mxCell id="aAaVYgw9E5NSkq3bx9yU-1" value="BUSCA NÃO ENCONTRADA." style="rounded=1;whiteSpace=wrap;html=1;" vertex="1" parent="1">
          <mxGeometry x="-810" y="240" width="180" height="100" as="geometry" />
        </mxCell>
        <mxCell id="vEACCtxcLIjWPWNtxTVD-1" value="DESEJA ATUALIZAR?" style="rounded=1;whiteSpace=wrap;html=1;" vertex="1" parent="1">
          <mxGeometry x="430" y="617.5" width="220" height="130" as="geometry" />
        </mxCell>
        <mxCell id="b4GNDB-fLGS2dYjRt_Fo-4" value="" style="rounded=1;whiteSpace=wrap;html=1;" vertex="1" parent="1">
          <mxGeometry x="-585" y="295" width="260" height="30" as="geometry" />
        </mxCell>
        <mxCell id="b4GNDB-fLGS2dYjRt_Fo-5" value="" style="rounded=1;whiteSpace=wrap;html=1;" vertex="1" parent="1">
          <mxGeometry x="-584" y="345" width="260" height="30" as="geometry" />
        </mxCell>
        <mxCell id="b4GNDB-fLGS2dYjRt_Fo-6" value="" style="rounded=1;whiteSpace=wrap;html=1;" vertex="1" parent="1">
          <mxGeometry x="-585" y="392.5" width="260" height="30" as="geometry" />
        </mxCell>
        <mxCell id="b4GNDB-fLGS2dYjRt_Fo-7" value="" style="rounded=1;whiteSpace=wrap;html=1;" vertex="1" parent="1">
          <mxGeometry x="-584" y="450" width="260" height="30" as="geometry" />
        </mxCell>
        <mxCell id="b4GNDB-fLGS2dYjRt_Fo-8" value="" style="rounded=1;whiteSpace=wrap;html=1;" vertex="1" parent="1">
          <mxGeometry x="-585" y="500" width="260" height="30" as="geometry" />
        </mxCell>
        <mxCell id="b4GNDB-fLGS2dYjRt_Fo-9" value="" style="rounded=1;whiteSpace=wrap;html=1;" vertex="1" parent="1">
          <mxGeometry x="-585" y="557.5" width="260" height="30" as="geometry" />
        </mxCell>
        <mxCell id="b4GNDB-fLGS2dYjRt_Fo-10" value="" style="rounded=1;whiteSpace=wrap;html=1;" vertex="1" parent="1">
          <mxGeometry x="-585" y="610" width="260" height="30" as="geometry" />
        </mxCell>
        <mxCell id="b4GNDB-fLGS2dYjRt_Fo-11" value="" style="rounded=1;whiteSpace=wrap;html=1;" vertex="1" parent="1">
          <mxGeometry x="-365" y="680" width="40" height="30" as="geometry" />
        </mxCell>
        <mxCell id="b4GNDB-fLGS2dYjRt_Fo-12" value="+" style="text;strokeColor=none;fillColor=none;html=1;fontSize=24;fontStyle=1;verticalAlign=middle;align=center;" vertex="1" parent="1">
          <mxGeometry x="-395" y="675" width="100" height="40" as="geometry" />
        </mxCell>
        <mxCell id="DBwejRcCgsGfdlQfVmeB-1" value="SIM" style="rounded=1;whiteSpace=wrap;html=1;" vertex="1" parent="1">
          <mxGeometry x="450" y="700" width="80" height="40" as="geometry" />
        </mxCell>
        <mxCell id="DBwejRcCgsGfdlQfVmeB-2" value="NÃO" style="rounded=1;whiteSpace=wrap;html=1;" vertex="1" parent="1">
          <mxGeometry x="550" y="700" width="80" height="40" as="geometry" />
        </mxCell>
        <mxCell id="pu1DZQXVh5DpkpOn9VFl-5" value="" style="rounded=1;whiteSpace=wrap;html=1;" vertex="1" parent="1">
          <mxGeometry x="-230.5" y="295" width="260" height="30" as="geometry" />
        </mxCell>
        <mxCell id="pu1DZQXVh5DpkpOn9VFl-8" value="PRODUTO:" style="text;html=1;align=center;verticalAlign=middle;whiteSpace=wrap;rounded=0;" vertex="1" parent="1">
          <mxGeometry x="-229" y="265" width="60" height="30" as="geometry" />
        </mxCell>
      </root>
    </mxGraphModel>
  </diagram>
  <diagram id="pATI45NzAmboV9kjeV12" name="Página-3">
    <mxGraphModel dx="2420" dy="869" grid="1" gridSize="10" guides="1" tooltips="1" connect="1" arrows="1" fold="1" page="1" pageScale="1" pageWidth="827" pageHeight="1169" math="0" shadow="0">
      <root>
        <mxCell id="0" />
        <mxCell id="1" parent="0" />
        <mxCell id="6vLlTNyqZVAwUDkhTMVj-10" value="EXCLUIR FORNECEDOR?&lt;div&gt;&lt;br&gt;&lt;/div&gt;&lt;div&gt;&lt;br&gt;&lt;/div&gt;&lt;div&gt;&lt;br&gt;&lt;/div&gt;&lt;div&gt;&lt;br&gt;&lt;/div&gt;&lt;div&gt;&lt;br&gt;&lt;/div&gt;" style="rounded=1;whiteSpace=wrap;html=1;" parent="1" vertex="1">
          <mxGeometry x="460" y="140" width="220" height="120" as="geometry" />
        </mxCell>
        <mxCell id="6vLlTNyqZVAwUDkhTMVj-11" value="SIM" style="rounded=1;whiteSpace=wrap;html=1;" parent="1" vertex="1">
          <mxGeometry x="480" y="210" width="80" height="30" as="geometry" />
        </mxCell>
        <mxCell id="6vLlTNyqZVAwUDkhTMVj-12" value="NÃO" style="rounded=1;whiteSpace=wrap;html=1;" parent="1" vertex="1">
          <mxGeometry x="580" y="210" width="80" height="30" as="geometry" />
        </mxCell>
        <mxCell id="6vLlTNyqZVAwUDkhTMVj-13" value="" style="shape=ext;double=1;rounded=1;whiteSpace=wrap;html=1;rotation=90;" parent="1" vertex="1">
          <mxGeometry x="-422.5" y="240" width="630" height="305" as="geometry" />
        </mxCell>
        <mxCell id="6vLlTNyqZVAwUDkhTMVj-14" value="" style="rounded=1;whiteSpace=wrap;html=1;" parent="1" vertex="1">
          <mxGeometry x="-239" y="200" width="260" height="30" as="geometry" />
        </mxCell>
        <mxCell id="6vLlTNyqZVAwUDkhTMVj-15" value="NOME:" style="text;html=1;align=center;verticalAlign=middle;whiteSpace=wrap;rounded=0;" parent="1" vertex="1">
          <mxGeometry x="-237" y="170" width="40" height="30" as="geometry" />
        </mxCell>
        <mxCell id="6vLlTNyqZVAwUDkhTMVj-16" value="Cadastro Fornecedor" style="text;strokeColor=none;fillColor=none;html=1;fontSize=24;fontStyle=1;verticalAlign=middle;align=center;" parent="1" vertex="1">
          <mxGeometry x="-155" y="120" width="100" height="40" as="geometry" />
        </mxCell>
        <mxCell id="6vLlTNyqZVAwUDkhTMVj-17" value="" style="rounded=1;whiteSpace=wrap;html=1;" parent="1" vertex="1">
          <mxGeometry x="-239" y="270" width="258" height="30" as="geometry" />
        </mxCell>
        <mxCell id="6vLlTNyqZVAwUDkhTMVj-18" value="TELEFONE:" style="text;html=1;align=center;verticalAlign=middle;whiteSpace=wrap;rounded=0;" parent="1" vertex="1">
          <mxGeometry x="-237" y="240" width="60" height="30" as="geometry" />
        </mxCell>
        <mxCell id="6vLlTNyqZVAwUDkhTMVj-21" value="" style="image;html=1;image=img/lib/atlassian/Bitbucket_Logo.svg;" parent="1" vertex="1">
          <mxGeometry x="-55" y="640" width="30" height="30" as="geometry" />
        </mxCell>
        <mxCell id="6vLlTNyqZVAwUDkhTMVj-22" value="" style="image;html=1;image=img/lib/atlassian/Bamboo_Logo.svg;" parent="1" vertex="1">
          <mxGeometry x="-16" y="640" width="30" height="30" as="geometry" />
        </mxCell>
        <mxCell id="6vLlTNyqZVAwUDkhTMVj-23" value="CADASTRAR" style="rounded=1;whiteSpace=wrap;html=1;fillColor=#dae8fc;strokeColor=#6c8ebf;" parent="1" vertex="1">
          <mxGeometry x="-190" y="540" width="181" height="30" as="geometry" />
        </mxCell>
        <mxCell id="6vLlTNyqZVAwUDkhTMVj-24" value="" style="shape=ext;double=1;rounded=1;whiteSpace=wrap;html=1;rotation=90;" parent="1" vertex="1">
          <mxGeometry x="-782" y="240" width="630" height="305" as="geometry" />
        </mxCell>
        <mxCell id="6vLlTNyqZVAwUDkhTMVj-25" value="" style="rounded=1;whiteSpace=wrap;html=1;" parent="1" vertex="1">
          <mxGeometry x="-597" y="190" width="260" height="30" as="geometry" />
        </mxCell>
        <mxCell id="6vLlTNyqZVAwUDkhTMVj-26" value="BUSCAR:" style="text;html=1;align=center;verticalAlign=middle;whiteSpace=wrap;rounded=0;" parent="1" vertex="1">
          <mxGeometry x="-593.5" y="160" width="46.5" height="30" as="geometry" />
        </mxCell>
        <mxCell id="6vLlTNyqZVAwUDkhTMVj-27" value="Buscar Fornecedor" style="text;strokeColor=none;fillColor=none;html=1;fontSize=24;fontStyle=1;verticalAlign=middle;align=center;" parent="1" vertex="1">
          <mxGeometry x="-517" y="111.25" width="100" height="40" as="geometry" />
        </mxCell>
        <mxCell id="eRpwS5lser7pP-BjLfQR-1" value="" style="rounded=1;whiteSpace=wrap;html=1;" parent="1" vertex="1">
          <mxGeometry x="-234" y="415" width="258" height="30" as="geometry" />
        </mxCell>
        <mxCell id="eRpwS5lser7pP-BjLfQR-4" value="" style="rounded=1;whiteSpace=wrap;html=1;" parent="1" vertex="1">
          <mxGeometry x="111" y="191.25" width="260" height="30" as="geometry" />
        </mxCell>
        <mxCell id="eRpwS5lser7pP-BjLfQR-5" value="NOME:" style="text;html=1;align=center;verticalAlign=middle;whiteSpace=wrap;rounded=0;" parent="1" vertex="1">
          <mxGeometry x="113" y="161.25" width="40" height="30" as="geometry" />
        </mxCell>
        <mxCell id="eRpwS5lser7pP-BjLfQR-6" value="Atualizar Fornecedor" style="text;strokeColor=none;fillColor=none;html=1;fontSize=24;fontStyle=1;verticalAlign=middle;align=center;" parent="1" vertex="1">
          <mxGeometry x="195" y="111.25" width="100" height="40" as="geometry" />
        </mxCell>
        <mxCell id="eRpwS5lser7pP-BjLfQR-7" value="" style="rounded=1;whiteSpace=wrap;html=1;" parent="1" vertex="1">
          <mxGeometry x="111" y="261.25" width="258" height="30" as="geometry" />
        </mxCell>
        <mxCell id="eRpwS5lser7pP-BjLfQR-8" value="TELEFONE:" style="text;html=1;align=center;verticalAlign=middle;whiteSpace=wrap;rounded=0;" parent="1" vertex="1">
          <mxGeometry x="113" y="231.25" width="60" height="30" as="geometry" />
        </mxCell>
        <mxCell id="eRpwS5lser7pP-BjLfQR-9" value="" style="rounded=1;whiteSpace=wrap;html=1;" parent="1" vertex="1">
          <mxGeometry x="113" y="341.25" width="258" height="30" as="geometry" />
        </mxCell>
        <mxCell id="eRpwS5lser7pP-BjLfQR-10" value="QUANTIDADE DE PRODUTO:" style="text;html=1;align=center;verticalAlign=middle;whiteSpace=wrap;rounded=0;" parent="1" vertex="1">
          <mxGeometry x="111" y="311.25" width="170" height="30" as="geometry" />
        </mxCell>
        <mxCell id="eRpwS5lser7pP-BjLfQR-13" value="ATUALIZAR" style="rounded=1;whiteSpace=wrap;html=1;fillColor=#dae8fc;strokeColor=#6c8ebf;" parent="1" vertex="1">
          <mxGeometry x="152.5" y="511.25" width="181" height="30" as="geometry" />
        </mxCell>
        <mxCell id="eRpwS5lser7pP-BjLfQR-14" value="" style="rounded=1;whiteSpace=wrap;html=1;" parent="1" vertex="1">
          <mxGeometry x="114" y="411.25" width="258" height="30" as="geometry" />
        </mxCell>
        <mxCell id="eRpwS5lser7pP-BjLfQR-15" value="VALOR:" style="text;html=1;align=center;verticalAlign=middle;whiteSpace=wrap;rounded=0;" parent="1" vertex="1">
          <mxGeometry x="111" y="381.25" width="60" height="30" as="geometry" />
        </mxCell>
        <mxCell id="NGlYs2YkggdZexjer0xo-3" value="MATÉRIA PRIMA" style="text;html=1;align=center;verticalAlign=middle;whiteSpace=wrap;rounded=0;" parent="1" vertex="1">
          <mxGeometry x="-234" y="367.5" width="160" height="30" as="geometry" />
        </mxCell>
        <mxCell id="l96c6Kr--UTd3LKXu9oz-4" value="" style="rounded=1;whiteSpace=wrap;html=1;" parent="1" vertex="1">
          <mxGeometry x="-234" y="461.25" width="258" height="30" as="geometry" />
        </mxCell>
        <mxCell id="l96c6Kr--UTd3LKXu9oz-8" value="Lixeira e atualizar ficará ao lado de cada nome" style="text;html=1;align=center;verticalAlign=middle;whiteSpace=wrap;rounded=0;" parent="1" vertex="1">
          <mxGeometry x="-720" y="270" width="100" height="30" as="geometry" />
        </mxCell>
        <mxCell id="jB0bXqufMMSCxagw5TFQ-2" value="PRODUTO:" style="text;html=1;align=center;verticalAlign=middle;whiteSpace=wrap;rounded=0;" vertex="1" parent="1">
          <mxGeometry x="-232" y="415" width="80" height="30" as="geometry" />
        </mxCell>
        <mxCell id="jB0bXqufMMSCxagw5TFQ-3" value="QUANTIDADE:" style="text;html=1;align=center;verticalAlign=middle;whiteSpace=wrap;rounded=0;" vertex="1" parent="1">
          <mxGeometry x="-222" y="461.25" width="70" height="30" as="geometry" />
        </mxCell>
        <mxCell id="jB0bXqufMMSCxagw5TFQ-43" value="" style="shape=ext;double=1;rounded=1;whiteSpace=wrap;html=1;rotation=90;" vertex="1" parent="1">
          <mxGeometry x="-60" y="243.75" width="630" height="305" as="geometry" />
        </mxCell>
        <mxCell id="jB0bXqufMMSCxagw5TFQ-44" value="" style="rounded=1;whiteSpace=wrap;html=1;" vertex="1" parent="1">
          <mxGeometry x="125" y="203.75" width="260" height="30" as="geometry" />
        </mxCell>
        <mxCell id="jB0bXqufMMSCxagw5TFQ-45" value="NOME:" style="text;html=1;align=center;verticalAlign=middle;whiteSpace=wrap;rounded=0;" vertex="1" parent="1">
          <mxGeometry x="127" y="173.75" width="40" height="30" as="geometry" />
        </mxCell>
        <mxCell id="jB0bXqufMMSCxagw5TFQ-46" value="Atualizar Fornecedor" style="text;strokeColor=none;fillColor=none;html=1;fontSize=24;fontStyle=1;verticalAlign=middle;align=center;" vertex="1" parent="1">
          <mxGeometry x="207.5" y="121.25" width="100" height="40" as="geometry" />
        </mxCell>
        <mxCell id="jB0bXqufMMSCxagw5TFQ-47" value="" style="rounded=1;whiteSpace=wrap;html=1;" vertex="1" parent="1">
          <mxGeometry x="125" y="273.75" width="258" height="30" as="geometry" />
        </mxCell>
        <mxCell id="jB0bXqufMMSCxagw5TFQ-48" value="TELEFONE:" style="text;html=1;align=center;verticalAlign=middle;whiteSpace=wrap;rounded=0;" vertex="1" parent="1">
          <mxGeometry x="127" y="243.75" width="60" height="30" as="geometry" />
        </mxCell>
        <mxCell id="jB0bXqufMMSCxagw5TFQ-50" value="" style="image;html=1;image=img/lib/atlassian/Bitbucket_Logo.svg;" vertex="1" parent="1">
          <mxGeometry x="309" y="643.75" width="30" height="30" as="geometry" />
        </mxCell>
        <mxCell id="jB0bXqufMMSCxagw5TFQ-51" value="" style="image;html=1;image=img/lib/atlassian/Bamboo_Logo.svg;" vertex="1" parent="1">
          <mxGeometry x="348" y="643.75" width="30" height="30" as="geometry" />
        </mxCell>
        <mxCell id="jB0bXqufMMSCxagw5TFQ-52" value="ATUALIZAR" style="rounded=1;whiteSpace=wrap;html=1;fillColor=#dae8fc;strokeColor=#6c8ebf;" vertex="1" parent="1">
          <mxGeometry x="168.5" y="588.75" width="181" height="30" as="geometry" />
        </mxCell>
        <mxCell id="jB0bXqufMMSCxagw5TFQ-53" value="" style="rounded=1;whiteSpace=wrap;html=1;" vertex="1" parent="1">
          <mxGeometry x="127" y="373.75" width="258" height="30" as="geometry" />
        </mxCell>
        <mxCell id="jB0bXqufMMSCxagw5TFQ-54" value="MATÉRIA PRIMA" style="text;html=1;align=center;verticalAlign=middle;whiteSpace=wrap;rounded=0;" vertex="1" parent="1">
          <mxGeometry x="175" y="323.75" width="160" height="30" as="geometry" />
        </mxCell>
        <mxCell id="jB0bXqufMMSCxagw5TFQ-57" value="" style="rounded=1;whiteSpace=wrap;html=1;" vertex="1" parent="1">
          <mxGeometry x="127" y="431.25" width="258" height="30" as="geometry" />
        </mxCell>
        <mxCell id="jB0bXqufMMSCxagw5TFQ-60" value="PRODUTO:" style="text;html=1;align=center;verticalAlign=middle;whiteSpace=wrap;rounded=0;" vertex="1" parent="1">
          <mxGeometry x="124" y="373.75" width="80" height="30" as="geometry" />
        </mxCell>
        <mxCell id="jB0bXqufMMSCxagw5TFQ-61" value="QUANTIDADE:" style="text;html=1;align=center;verticalAlign=middle;whiteSpace=wrap;rounded=0;" vertex="1" parent="1">
          <mxGeometry x="137.5" y="431.25" width="70" height="30" as="geometry" />
        </mxCell>
        <mxCell id="P7sXuN0dqNHG31qNKwES-1" value="" style="rounded=1;whiteSpace=wrap;html=1;" vertex="1" parent="1">
          <mxGeometry x="462.5" y="602.5" width="220" height="112.5" as="geometry" />
        </mxCell>
        <mxCell id="P7sXuN0dqNHG31qNKwES-2" value="FORNECEDOR ATUALIZADO." style="text;html=1;align=center;verticalAlign=middle;whiteSpace=wrap;rounded=0;" vertex="1" parent="1">
          <mxGeometry x="487.5" y="643.75" width="170" height="30" as="geometry" />
        </mxCell>
        <mxCell id="P7sXuN0dqNHG31qNKwES-3" value="" style="rounded=1;whiteSpace=wrap;html=1;" vertex="1" parent="1">
          <mxGeometry x="460" y="295" width="220" height="120" as="geometry" />
        </mxCell>
        <mxCell id="P7sXuN0dqNHG31qNKwES-4" value="CADASTRO REALIZADO COM SUCESSO." style="text;html=1;align=center;verticalAlign=middle;whiteSpace=wrap;rounded=0;" vertex="1" parent="1">
          <mxGeometry x="495" y="335" width="155" height="40" as="geometry" />
        </mxCell>
        <mxCell id="8gYaInAh9aKvJfdjlKke-1" value="BUSCA NÃO ENCONTRADA." style="rounded=1;whiteSpace=wrap;html=1;" vertex="1" parent="1">
          <mxGeometry x="-820" y="135" width="180" height="100" as="geometry" />
        </mxCell>
        <mxCell id="nEiBer57KNdESL3chQu--4" value="" style="shape=ext;double=1;rounded=1;whiteSpace=wrap;html=1;" vertex="1" parent="1">
          <mxGeometry x="-9" y="375" width="30" height="30" as="geometry" />
        </mxCell>
        <mxCell id="nEiBer57KNdESL3chQu--5" value="+" style="text;strokeColor=none;fillColor=none;html=1;fontSize=24;fontStyle=1;verticalAlign=middle;align=center;" vertex="1" parent="1">
          <mxGeometry x="-44" y="371.25" width="100" height="40" as="geometry" />
        </mxCell>
        <mxCell id="nEiBer57KNdESL3chQu--7" value="DESEJA ATUALIZAR?" style="rounded=1;whiteSpace=wrap;html=1;" vertex="1" parent="1">
          <mxGeometry x="460" y="441.25" width="220" height="130" as="geometry" />
        </mxCell>
        <mxCell id="nEiBer57KNdESL3chQu--9" value="" style="shape=ext;double=1;rounded=1;whiteSpace=wrap;html=1;" vertex="1" parent="1">
          <mxGeometry x="-382" y="640" width="30" height="30" as="geometry" />
        </mxCell>
        <mxCell id="nEiBer57KNdESL3chQu--10" value="+" style="text;strokeColor=none;fillColor=none;html=1;fontSize=24;fontStyle=1;verticalAlign=middle;align=center;" vertex="1" parent="1">
          <mxGeometry x="-417" y="635" width="100" height="40" as="geometry" />
        </mxCell>
        <mxCell id="nEiBer57KNdESL3chQu--21" value="" style="image;html=1;image=img/lib/atlassian/Bitbucket_Logo.svg;" vertex="1" parent="1">
          <mxGeometry x="-46" y="377.5" width="31" height="30" as="geometry" />
        </mxCell>
        <mxCell id="L5tDzd4Itq8ABwccnWYt-1" value="" style="rounded=1;whiteSpace=wrap;html=1;" vertex="1" parent="1">
          <mxGeometry x="-597" y="243.75" width="260" height="30" as="geometry" />
        </mxCell>
        <mxCell id="L5tDzd4Itq8ABwccnWYt-2" value="" style="rounded=1;whiteSpace=wrap;html=1;" vertex="1" parent="1">
          <mxGeometry x="-597" y="295" width="260" height="30" as="geometry" />
        </mxCell>
        <mxCell id="L5tDzd4Itq8ABwccnWYt-3" value="" style="rounded=1;whiteSpace=wrap;html=1;" vertex="1" parent="1">
          <mxGeometry x="-597" y="341.25" width="260" height="30" as="geometry" />
        </mxCell>
        <mxCell id="L5tDzd4Itq8ABwccnWYt-4" value="" style="rounded=1;whiteSpace=wrap;html=1;" vertex="1" parent="1">
          <mxGeometry x="-597" y="390" width="260" height="30" as="geometry" />
        </mxCell>
        <mxCell id="L5tDzd4Itq8ABwccnWYt-5" value="" style="rounded=1;whiteSpace=wrap;html=1;" vertex="1" parent="1">
          <mxGeometry x="-597" y="440" width="260" height="30" as="geometry" />
        </mxCell>
        <mxCell id="L5tDzd4Itq8ABwccnWYt-6" value="" style="rounded=1;whiteSpace=wrap;html=1;" vertex="1" parent="1">
          <mxGeometry x="-597" y="491.25" width="260" height="30" as="geometry" />
        </mxCell>
        <mxCell id="L5tDzd4Itq8ABwccnWYt-7" value="" style="rounded=1;whiteSpace=wrap;html=1;" vertex="1" parent="1">
          <mxGeometry x="-597" y="541.25" width="260" height="30" as="geometry" />
        </mxCell>
        <mxCell id="L5tDzd4Itq8ABwccnWYt-8" value="" style="rounded=1;whiteSpace=wrap;html=1;" vertex="1" parent="1">
          <mxGeometry x="-597" y="590" width="260" height="30" as="geometry" />
        </mxCell>
        <mxCell id="1Mulm_jD0W88SxKxGV5G-1" value="" style="image;html=1;image=img/lib/atlassian/Bitbucket_Logo.svg;" vertex="1" parent="1">
          <mxGeometry x="-400" y="190" width="30" height="30" as="geometry" />
        </mxCell>
        <mxCell id="1Mulm_jD0W88SxKxGV5G-2" value="" style="image;html=1;image=img/lib/atlassian/Bamboo_Logo.svg;" vertex="1" parent="1">
          <mxGeometry x="-367" y="190" width="30" height="30" as="geometry" />
        </mxCell>
        <mxCell id="bavxDwl-XLqzq-HS3VKs-1" value="SIM" style="rounded=1;whiteSpace=wrap;html=1;" vertex="1" parent="1">
          <mxGeometry x="485" y="526.25" width="70" height="30" as="geometry" />
        </mxCell>
        <mxCell id="bavxDwl-XLqzq-HS3VKs-2" value="NÃO" style="rounded=1;whiteSpace=wrap;html=1;" vertex="1" parent="1">
          <mxGeometry x="585" y="526.25" width="70" height="30" as="geometry" />
        </mxCell>
      </root>
    </mxGraphModel>
  </diagram>
  <diagram id="tVAQmNKuFVrQTq1w-F9B" name="Página-4">
    <mxGraphModel dx="2739" dy="1043" grid="1" gridSize="10" guides="1" tooltips="1" connect="1" arrows="1" fold="1" page="1" pageScale="1" pageWidth="827" pageHeight="1169" math="0" shadow="0">
      <root>
        <mxCell id="0" />
        <mxCell id="1" parent="0" />
        <mxCell id="l9MmxdcFqetzBvUslgdd-1" value="EXCLUIR MATÉRIA PRIMA?&lt;div&gt;&lt;br&gt;&lt;/div&gt;&lt;div&gt;&lt;br&gt;&lt;/div&gt;&lt;div&gt;&lt;br&gt;&lt;/div&gt;&lt;div&gt;&lt;br&gt;&lt;/div&gt;&lt;div&gt;&lt;br&gt;&lt;/div&gt;" style="rounded=1;whiteSpace=wrap;html=1;" parent="1" vertex="1">
          <mxGeometry x="430" y="135" width="220" height="120" as="geometry" />
        </mxCell>
        <mxCell id="l9MmxdcFqetzBvUslgdd-2" value="SIM" style="rounded=1;whiteSpace=wrap;html=1;" parent="1" vertex="1">
          <mxGeometry x="456" y="205" width="80" height="30" as="geometry" />
        </mxCell>
        <mxCell id="l9MmxdcFqetzBvUslgdd-3" value="NÃO" style="rounded=1;whiteSpace=wrap;html=1;" parent="1" vertex="1">
          <mxGeometry x="549" y="205" width="80" height="30" as="geometry" />
        </mxCell>
        <mxCell id="l9MmxdcFqetzBvUslgdd-4" value="" style="shape=ext;double=1;rounded=1;whiteSpace=wrap;html=1;rotation=90;" parent="1" vertex="1">
          <mxGeometry x="-420" y="240" width="630" height="305" as="geometry" />
        </mxCell>
        <mxCell id="l9MmxdcFqetzBvUslgdd-5" value="" style="rounded=1;whiteSpace=wrap;html=1;" parent="1" vertex="1">
          <mxGeometry x="-236" y="270" width="260" height="30" as="geometry" />
        </mxCell>
        <mxCell id="l9MmxdcFqetzBvUslgdd-6" value="PRODUTO:" style="text;html=1;align=center;verticalAlign=middle;whiteSpace=wrap;rounded=0;" parent="1" vertex="1">
          <mxGeometry x="-234" y="240" width="67" height="30" as="geometry" />
        </mxCell>
        <mxCell id="l9MmxdcFqetzBvUslgdd-7" value="Cadastro Matéria&amp;nbsp;&lt;div&gt;Prima&lt;/div&gt;" style="text;strokeColor=none;fillColor=none;html=1;fontSize=24;fontStyle=1;verticalAlign=middle;align=center;" parent="1" vertex="1">
          <mxGeometry x="-157" y="150" width="100" height="40" as="geometry" />
        </mxCell>
        <mxCell id="l9MmxdcFqetzBvUslgdd-8" value="" style="rounded=1;whiteSpace=wrap;html=1;" parent="1" vertex="1">
          <mxGeometry x="-234" y="350" width="258" height="30" as="geometry" />
        </mxCell>
        <mxCell id="l9MmxdcFqetzBvUslgdd-11" value="UNIDADE DE MEDIDA:" style="text;html=1;align=center;verticalAlign=middle;whiteSpace=wrap;rounded=0;" parent="1" vertex="1">
          <mxGeometry x="-250" y="320" width="170" height="30" as="geometry" />
        </mxCell>
        <mxCell id="l9MmxdcFqetzBvUslgdd-12" value="" style="image;html=1;image=img/lib/atlassian/Bitbucket_Logo.svg;" parent="1" vertex="1">
          <mxGeometry x="-55" y="620" width="30" height="30" as="geometry" />
        </mxCell>
        <mxCell id="l9MmxdcFqetzBvUslgdd-13" value="" style="image;html=1;image=img/lib/atlassian/Bamboo_Logo.svg;" parent="1" vertex="1">
          <mxGeometry x="-16" y="620" width="30" height="30" as="geometry" />
        </mxCell>
        <mxCell id="l9MmxdcFqetzBvUslgdd-14" value="CADASTRAR" style="rounded=1;whiteSpace=wrap;html=1;fillColor=#dae8fc;strokeColor=#6c8ebf;" parent="1" vertex="1">
          <mxGeometry x="-197.5" y="520" width="181" height="30" as="geometry" />
        </mxCell>
        <mxCell id="l9MmxdcFqetzBvUslgdd-15" value="" style="shape=ext;double=1;rounded=1;whiteSpace=wrap;html=1;rotation=90;" parent="1" vertex="1">
          <mxGeometry x="-785" y="245" width="630" height="305" as="geometry" />
        </mxCell>
        <mxCell id="l9MmxdcFqetzBvUslgdd-16" value="" style="rounded=1;whiteSpace=wrap;html=1;" parent="1" vertex="1">
          <mxGeometry x="-600" y="197.5" width="260" height="30" as="geometry" />
        </mxCell>
        <mxCell id="l9MmxdcFqetzBvUslgdd-17" value="BUSCAR:" style="text;html=1;align=center;verticalAlign=middle;whiteSpace=wrap;rounded=0;" parent="1" vertex="1">
          <mxGeometry x="-597" y="167.5" width="46.5" height="30" as="geometry" />
        </mxCell>
        <mxCell id="l9MmxdcFqetzBvUslgdd-18" value="Buscar Matéria Prima" style="text;strokeColor=none;fillColor=none;html=1;fontSize=24;fontStyle=1;verticalAlign=middle;align=center;" parent="1" vertex="1">
          <mxGeometry x="-517" y="110" width="100" height="40" as="geometry" />
        </mxCell>
        <mxCell id="l9MmxdcFqetzBvUslgdd-21" value="" style="shape=ext;double=1;rounded=1;whiteSpace=wrap;html=1;rotation=90;" parent="1" vertex="1">
          <mxGeometry x="-70" y="247.5" width="630" height="305" as="geometry" />
        </mxCell>
        <mxCell id="l9MmxdcFqetzBvUslgdd-22" value="" style="rounded=1;whiteSpace=wrap;html=1;" parent="1" vertex="1">
          <mxGeometry x="113" y="270" width="260" height="30" as="geometry" />
        </mxCell>
        <mxCell id="l9MmxdcFqetzBvUslgdd-23" value="FORNECEDOR:" style="text;html=1;align=center;verticalAlign=middle;whiteSpace=wrap;rounded=0;" parent="1" vertex="1">
          <mxGeometry x="140" y="240" width="40" height="30" as="geometry" />
        </mxCell>
        <mxCell id="l9MmxdcFqetzBvUslgdd-24" value="Compra Matéria Prima" style="text;strokeColor=none;fillColor=none;html=1;fontSize=24;fontStyle=1;verticalAlign=middle;align=center;" parent="1" vertex="1">
          <mxGeometry x="195" y="127.5" width="100" height="40" as="geometry" />
        </mxCell>
        <mxCell id="l9MmxdcFqetzBvUslgdd-25" value="" style="rounded=1;whiteSpace=wrap;html=1;" parent="1" vertex="1">
          <mxGeometry x="112" y="350" width="258" height="30" as="geometry" />
        </mxCell>
        <mxCell id="l9MmxdcFqetzBvUslgdd-26" value="MATÉRIA PRIMA:" style="text;html=1;align=center;verticalAlign=middle;whiteSpace=wrap;rounded=0;" parent="1" vertex="1">
          <mxGeometry x="100" y="320" width="130" height="30" as="geometry" />
        </mxCell>
        <mxCell id="l9MmxdcFqetzBvUslgdd-27" value="" style="rounded=1;whiteSpace=wrap;html=1;" parent="1" vertex="1">
          <mxGeometry x="115" y="425" width="258" height="30" as="geometry" />
        </mxCell>
        <mxCell id="l9MmxdcFqetzBvUslgdd-28" value="QUANTIDADE DE PRODUTO:" style="text;html=1;align=center;verticalAlign=middle;whiteSpace=wrap;rounded=0;" parent="1" vertex="1">
          <mxGeometry x="112" y="395" width="170" height="30" as="geometry" />
        </mxCell>
        <mxCell id="l9MmxdcFqetzBvUslgdd-29" value="FINALIZAR" style="rounded=1;whiteSpace=wrap;html=1;fillColor=#dae8fc;strokeColor=#6c8ebf;" parent="1" vertex="1">
          <mxGeometry x="154.5" y="580" width="181" height="30" as="geometry" />
        </mxCell>
        <mxCell id="AhuBl6MzwFvCEKBvmhVw-1" value="" style="rounded=1;whiteSpace=wrap;html=1;" vertex="1" parent="1">
          <mxGeometry x="430" y="285" width="220" height="120" as="geometry" />
        </mxCell>
        <mxCell id="AhuBl6MzwFvCEKBvmhVw-2" value="MATÉRIA PRIMA ATUALIZADA." style="text;html=1;align=center;verticalAlign=middle;whiteSpace=wrap;rounded=0;" vertex="1" parent="1">
          <mxGeometry x="450" y="322.5" width="170" height="30" as="geometry" />
        </mxCell>
        <mxCell id="jTNB5sSCmx77dGeY9y-d-1" value="" style="rounded=1;whiteSpace=wrap;html=1;" vertex="1" parent="1">
          <mxGeometry x="430" y="430" width="220" height="120" as="geometry" />
        </mxCell>
        <mxCell id="jTNB5sSCmx77dGeY9y-d-2" value="CADASTRO REALIZADO COM SUCESSO." style="text;html=1;align=center;verticalAlign=middle;whiteSpace=wrap;rounded=0;" vertex="1" parent="1">
          <mxGeometry x="460" y="470" width="155" height="40" as="geometry" />
        </mxCell>
        <mxCell id="CQT3bOnWv-REfHj7hAGY-1" value="BUSCA NÃO ENCONTRADA." style="rounded=1;whiteSpace=wrap;html=1;" vertex="1" parent="1">
          <mxGeometry x="-820" y="135" width="180" height="100" as="geometry" />
        </mxCell>
        <mxCell id="h_g0CGC6zhxNlV4k7vDJ-1" value="DESEJA ATUALIZAR?" style="rounded=1;whiteSpace=wrap;html=1;" vertex="1" parent="1">
          <mxGeometry x="425" y="570" width="220" height="140" as="geometry" />
        </mxCell>
        <mxCell id="BMzlHCxhYaF-nbIYNf1d-3" value="" style="rounded=1;whiteSpace=wrap;html=1;" vertex="1" parent="1">
          <mxGeometry x="-600" y="245" width="260" height="30" as="geometry" />
        </mxCell>
        <mxCell id="BMzlHCxhYaF-nbIYNf1d-4" value="" style="rounded=1;whiteSpace=wrap;html=1;" vertex="1" parent="1">
          <mxGeometry x="-600" y="292.5" width="260" height="30" as="geometry" />
        </mxCell>
        <mxCell id="BMzlHCxhYaF-nbIYNf1d-5" value="" style="rounded=1;whiteSpace=wrap;html=1;" vertex="1" parent="1">
          <mxGeometry x="-597" y="350" width="260" height="30" as="geometry" />
        </mxCell>
        <mxCell id="BMzlHCxhYaF-nbIYNf1d-6" value="" style="rounded=1;whiteSpace=wrap;html=1;" vertex="1" parent="1">
          <mxGeometry x="-600" y="410" width="260" height="30" as="geometry" />
        </mxCell>
        <mxCell id="BMzlHCxhYaF-nbIYNf1d-7" value="" style="rounded=1;whiteSpace=wrap;html=1;" vertex="1" parent="1">
          <mxGeometry x="-597" y="465" width="260" height="30" as="geometry" />
        </mxCell>
        <mxCell id="BMzlHCxhYaF-nbIYNf1d-8" value="" style="rounded=1;whiteSpace=wrap;html=1;" vertex="1" parent="1">
          <mxGeometry x="-597" y="520" width="260" height="30" as="geometry" />
        </mxCell>
        <mxCell id="BMzlHCxhYaF-nbIYNf1d-9" value="" style="rounded=1;whiteSpace=wrap;html=1;" vertex="1" parent="1">
          <mxGeometry x="-600" y="585" width="260" height="30" as="geometry" />
        </mxCell>
        <mxCell id="BMzlHCxhYaF-nbIYNf1d-11" value="" style="image;html=1;image=img/lib/atlassian/Bitbucket_Logo.svg;" vertex="1" parent="1">
          <mxGeometry x="-413" y="197.5" width="30" height="30" as="geometry" />
        </mxCell>
        <mxCell id="BMzlHCxhYaF-nbIYNf1d-12" value="" style="image;html=1;image=img/lib/atlassian/Bamboo_Logo.svg;" vertex="1" parent="1">
          <mxGeometry x="-380" y="197.5" width="30" height="30" as="geometry" />
        </mxCell>
        <mxCell id="VSl0MPyI0BJ5_ZDRJbGW-1" value="SIM" style="rounded=1;whiteSpace=wrap;html=1;" vertex="1" parent="1">
          <mxGeometry x="450" y="670" width="70" height="30" as="geometry" />
        </mxCell>
        <mxCell id="VSl0MPyI0BJ5_ZDRJbGW-2" value="NÃO" style="rounded=1;whiteSpace=wrap;html=1;" vertex="1" parent="1">
          <mxGeometry x="545" y="670" width="70" height="30" as="geometry" />
        </mxCell>
        <mxCell id="B8BH5X5sEo6E5vmxE6sV-1" value="" style="rounded=1;whiteSpace=wrap;html=1;" vertex="1" parent="1">
          <mxGeometry x="-385" y="650" width="40" height="30" as="geometry" />
        </mxCell>
        <mxCell id="B8BH5X5sEo6E5vmxE6sV-2" value="+" style="text;strokeColor=none;fillColor=none;html=1;fontSize=24;fontStyle=1;verticalAlign=middle;align=center;" vertex="1" parent="1">
          <mxGeometry x="-415" y="645" width="100" height="40" as="geometry" />
        </mxCell>
        <mxCell id="fdvgksf1Uh17YzePnkea-1" value="" style="rounded=1;whiteSpace=wrap;html=1;" vertex="1" parent="1">
          <mxGeometry x="114" y="495" width="258" height="30" as="geometry" />
        </mxCell>
        <mxCell id="fdvgksf1Uh17YzePnkea-2" value="VALOR:" style="text;html=1;align=center;verticalAlign=middle;whiteSpace=wrap;rounded=0;" vertex="1" parent="1">
          <mxGeometry x="113" y="465" width="60" height="30" as="geometry" />
        </mxCell>
        <mxCell id="fdvgksf1Uh17YzePnkea-3" value="" style="rounded=1;whiteSpace=wrap;html=1;" vertex="1" parent="1">
          <mxGeometry x="425" y="740" width="220" height="120" as="geometry" />
        </mxCell>
        <mxCell id="fdvgksf1Uh17YzePnkea-4" value="FINALIZADO COM SUCESSO." style="text;html=1;align=center;verticalAlign=middle;whiteSpace=wrap;rounded=0;" vertex="1" parent="1">
          <mxGeometry x="460" y="785" width="160" height="30" as="geometry" />
        </mxCell>
      </root>
    </mxGraphModel>
  </diagram>
</mxfile>
